<?xml version="1.0" encoding="utf-8"?>
<!-- Svg Vector Icons : http://www.onlinewebfonts.com/icon -->
<!DOCTYPE svg PUBLIC "-//W3C//DTD SVG 1.1//EN" "http://www.w3.org/Graphics/SVG/1.1/DTD/svg11.dtd">
<svg fill="white"  version="1.1" xmlns="http://www.w3.org/2000/svg" xmlns:xlink="http://www.w3.org/1999/xlink" x="0px" y="0px" viewBox="0 0 1000 1000"  xml:space="preserve">
<metadata> Svg Vector Icons : http://www.onlinewebfonts.com/icon </metadata>
<g><g  transform="translate(0.000000,511.000000) scale(0.100000,-0.100000)"><path d="M3276,2451.2c-173.3-43.3-303.4-117.6-433.4-249.7C2306.1,1667,2599.1,767.2,3350.3,639.2c385.9-66,786.3,140.3,965.8,495.3c227,447.8,53.7,998.8-383.8,1227.9C3709.4,2478,3496.9,2506.9,3276,2451.2z"/><path d="M6309.7,2451.2c-171.3-41.3-301.3-115.6-435.5-247.6c-280.7-282.7-352.9-695.5-179.5-1060.7c72.2-152.7,270.3-350.8,423.1-423.1c365.3-173.4,775.9-101.1,1058.7,181.6c367.3,367.3,367.3,934.9,2.1,1302.2C6943.2,2436.7,6625.4,2527.5,6309.7,2451.2z"/><path d="M3276-479.3c-171.3-41.3-301.3-115.6-435.4-247.6c-365.3-367.3-365.3-936.9,0-1304.3c367.3-365.3,934.9-365.3,1302.2,2.1s367.3,934.9,2.1,1302.2C3909.6-493.7,3591.8-402.9,3276-479.3z"/><path d="M6309.7-479.3c-171.3-41.3-301.3-115.6-435.5-247.6c-280.7-282.7-352.9-695.5-179.5-1060.7c72.2-152.7,270.3-350.8,423.1-423.1c365.3-173.4,775.9-101.1,1058.7,181.6c367.3,367.3,367.3,934.9,2.1,1302.2C6943.2-493.7,6625.4-402.9,6309.7-479.3z"/></g></g>
</svg>